<svg xmlns="http://www.w3.org/2000/svg" viewBox="0 0 500 500">
  <path style="fill: rgb(0, 0, 0);" d="M 150.654 393.734 C 131.94 379.012 111.975 364.898 98.331 345.025 C 69.623 309.979 47.521 269.403 32.415 226.762 C 23.282 199.037 20.153 169.309 8.38 142.651 C -3.936 123.292 10.49 102.128 31.697 95.975 C 41.137 94.162 57.738 85.257 37.698 91.621 C 19.735 104.803 17.994 79.658 36.418 78.064 C 48.991 76.393 53.619 66.101 49.32 56.834 C 35.823 48.034 82.044 38.362 58.789 25.23 C 34.561 -0.907 92.677 -5.942 78.338 23.744 C 74.907 46.57 118.946 19.56 108.729 45.924 C 119.117 58.581 147.624 48.801 146.917 66.56 C 162.046 67.602 167.239 80.334 181.443 81.311 C 196.161 87.955 222.846 93.197 227.857 109.783 C 213.253 121.345 179.434 85.901 177.812 117.905 C 182.222 165.183 181.098 213.888 198.398 258.909 C 206.578 286.173 226.411 307.633 244.324 328.866 C 261.466 349.66 284.678 364.298 308.343 376.624 C 329.1 386.417 351.475 392.906 374.098 396.98 C 383.272 389.964 399.471 363.872 413.786 374.874 C 414.464 387.236 385.375 400.716 412.416 399.349 C 428.295 394.558 439.306 411.629 452.383 396.232 C 464.429 410.5 502.452 387.115 493.881 416.283 C 482.291 423.761 465.386 419.238 453.779 429.527 C 434.636 419.966 419.399 438.082 398.209 435.792 C 374.679 440.007 350.736 441.709 326.879 441.744 C 287.737 438.653 247.77 437.349 210.534 423.721 C 189.559 417.624 169.089 405.681 150.651 393.734 L 150.654 393.734 Z M 183.71 408.057 C 204.193 416.913 224.219 426.249 246.668 429.063 C 282.279 434.018 319.056 441.636 354.797 434.687 C 338.62 427.382 321.897 437.532 305.783 429.466 C 286.457 433.622 265.717 428.404 246.066 425.835 C 223.723 415.882 199.61 409.037 178.685 396.121 C 152.54 386.571 192.208 408.367 199.269 410.132 C 215.615 419.411 181.294 405.377 176.458 401.521 C 162.766 393.841 161.024 395.444 175.1 403.243 C 177.937 404.903 180.739 406.642 183.71 408.057 Z M 144.735 380.513 C 164.583 387.863 144.649 366.555 135.551 367.792 C 131.523 360.802 120.158 356.386 128.176 352.631 C 113.754 357.638 113.067 333.591 106.29 337.028 C 91.032 332.21 100.353 315.144 82.177 304.664 C 80.519 293.621 64.121 284.042 58.89 267.384 C 56.58 258.855 40.366 234.366 50.325 257.157 C 58.806 279.1 73.73 297.889 86.151 316.659 C 95.792 334.528 107.178 353.205 124.741 364.353 C 130.659 370.033 136.374 378.733 144.735 380.513 Z M 87.559 317.738 C 88.254 314.739 91.189 324.225 87.559 317.738 Z M 168.506 389.325 C 172.901 387.358 162.183 386.845 168.506 389.325 Z M 179.278 393.255 C 178.165 387.828 174.36 396.289 179.278 393.255 Z M 192.767 398.881 C 199.186 392.768 182.872 395.027 192.767 398.881 Z M 215.882 411.765 C 219.782 405.997 203.391 409.587 215.882 411.765 Z M 171.494 380.822 C 181.466 374.371 158.614 380.735 171.494 380.822 Z M 181.612 385.867 C 181.33 382.456 178.007 387.396 181.612 385.867 Z M 232.175 417.427 C 240.303 422.556 279.643 428.671 255.011 419.53 C 250.888 420.4 209.332 407.776 232.175 417.427 Z M 151.902 354.907 C 151.111 351.49 139.285 351.13 151.902 354.907 Z M 175.445 368.626 C 181.569 364.355 162.728 365.332 175.445 368.626 Z M 195.244 380.767 C 204.033 377.453 180.98 377.436 195.244 380.767 Z M 142.325 344.479 C 151.863 351.79 180.792 345.414 156.932 340.11 C 146.071 334.322 121.594 330.359 138.28 343.599 L 142.325 344.477 L 142.325 344.479 Z M 208.654 384.959 C 212.628 378.191 191.994 381.094 208.654 384.959 Z M 188.498 368.94 C 211.82 375.54 168.886 354.191 182.744 366.515 L 185.814 367.902 L 188.498 368.94 Z M 228.909 392.296 C 250.996 392.507 208.958 389.251 228.909 392.296 Z M 133.826 331.695 C 132.962 327.584 128.374 332.042 133.826 331.695 Z M 266.271 413.254 C 266.863 405.827 259.065 418.786 266.271 413.254 Z M 171.519 354.779 C 170.183 350.867 164.619 354.619 171.519 354.779 Z M 135.921 329.115 C 148.601 328.356 118.559 323.528 135.921 329.115 Z M 93.746 301.855 C 92.167 295.777 79.949 290.927 93.746 301.855 Z M 204.464 372.119 C 202.14 369.47 203.37 372.698 204.464 372.119 Z M 273.376 414.408 C 273.155 410.359 269.624 415.938 273.376 414.408 Z M 198.363 365.821 C 199.603 360.603 187.549 364.239 198.363 365.821 Z M 147.026 333.284 C 156.457 332.273 131.913 326.905 147.026 333.284 Z M 233.869 387.247 C 248.569 381.424 219.54 384.404 233.869 387.247 Z M 188.696 356.584 C 205.64 358.768 168.536 345.057 184.979 355.356 L 188.696 356.584 Z M 247.582 392.79 C 263.401 383.334 258.187 414.936 274.421 395.461 C 290.433 383.767 260.592 409.915 280.327 397.545 C 294.601 387.999 315.681 402.067 329.001 406.66 C 338.577 406.19 347.889 414.943 357.709 409.615 C 376.606 404.528 320.746 402.067 335.391 393.037 C 318.094 398.068 305.317 387.037 296.809 375.959 C 277.411 371.479 254.979 361.562 245.297 344.394 C 241.351 337.947 251.001 345.302 241.89 334.763 C 230.202 324.368 224.361 312.567 216.516 299.927 C 207.143 294.926 206.05 280.207 205.105 299.434 C 205.177 287.298 193.784 279.13 191.003 282.526 C 190.952 270.84 203.195 276.7 194.627 268.05 C 192.781 255.938 186.708 243.317 184.884 229.642 C 182.047 223.05 184.483 208.93 175.203 223.854 C 171.82 239.627 174.081 204.473 179.34 216.067 C 186.241 204.237 176.86 205.627 176.477 207.27 C 180.974 197.29 179.323 183.131 175.304 188.535 C 177.699 177.957 179.089 149.604 171.717 154.629 C 176.184 143.567 180.19 104.014 160.795 119.094 C 152.936 119.204 139.325 121.947 132.892 125.147 C 153.064 136.268 130.862 129.164 122.652 127.396 C 121.579 137.686 113.447 133.235 103.286 133.336 C 119.515 135.345 95.38 149.937 86.068 144.269 C 73.976 150.047 96.506 164.474 86.313 168.933 C 87.565 175.658 67.788 166.505 69.34 182.034 C 57.6 177.098 67.725 200.456 73.597 192.558 C 93.567 197.961 87.654 210.279 88.161 221.983 C 84.907 228.802 72.098 205.955 85.309 207.013 C 74.889 190.084 73.782 200.894 65.123 208.759 C 63.109 209.329 87.21 219.948 72.085 225.196 C 85.394 227.252 85.771 238.894 88.482 246.264 C 96.479 254.595 94.84 237.064 104.411 247.077 C 98.357 238.159 72.332 221.946 93.282 227.146 C 93.172 218.168 89.494 210.93 95.915 211.108 C 102.27 199.593 89.258 239.491 103.586 224.857 C 107.552 223.126 108.533 213.333 115.666 225.781 C 126.017 235.97 119.402 243.351 104.794 234.024 C 107.41 242.892 124.337 246.056 121.155 259.922 C 124.528 272.114 129.245 267.625 133.358 266.918 C 136.584 278.766 138.416 270.053 138.57 264.417 C 153.339 267.579 149.881 276.308 154.504 282.41 C 164.682 287.006 139.931 251.268 157.408 271.665 C 175.795 288.264 164.304 295.193 147.803 292.534 C 158.245 291.69 161.613 306.651 174.676 306.124 C 186.586 311.79 194.65 333.553 174.12 324.494 C 167 318.075 141.8 310.154 162.38 322.366 C 181.391 331.168 196.488 336.435 214.822 347.485 C 227.944 356.853 233.612 367.581 238.585 369.704 C 227.559 374.973 205.355 365.5 221.842 362.595 C 211.556 360.721 199.991 355.522 209.839 368.334 C 218.218 375.33 239.519 374.587 243.333 375.38 C 240.099 382.513 234.545 383.078 243.468 383.631 C 233.511 388.938 246.66 389.761 247.582 392.79 Z M 227.226 335.298 C 221.168 328.963 219.601 317.101 226.148 327.424 C 229.508 328.773 236.904 346.813 227.226 335.298 Z M 293.524 377.413 C 297.302 377.168 293.634 380.283 293.524 377.413 Z M 217.66 319.767 C 217.429 310.19 219.852 327.154 217.66 319.767 Z M 211.071 310.901 C 203.452 296.181 220.676 315.07 211.071 310.901 Z M 131.22 255.787 C 135.694 254.595 133.419 263.442 131.22 255.787 Z M 194.771 290.235 C 197.521 279.911 198.001 298.897 194.771 290.235 Z M 149.873 259.015 C 146.708 253.32 156.493 264.358 149.873 259.015 Z M 188.405 271.367 C 181.187 255.196 193.515 262.533 190.001 274.019 L 188.405 271.367 Z M 121.957 227.056 C 118.729 221.75 113.391 206.183 115.11 201.433 C 116.666 209.169 131.569 234.738 122.42 212.021 C 112.311 192.98 134.504 218.203 136.787 222.952 C 137.85 227.676 130.551 221.662 135.497 232.739 C 126.476 220.128 130.17 239.706 121.957 227.056 Z M 101.422 212.905 C 102.265 200.569 106.119 221.362 101.422 212.905 Z M 110.657 216.085 C 115.067 206.774 118.132 229.064 110.657 216.085 Z M 88.435 198.894 C 80.79 191.297 75.256 184.293 88.796 194.18 C 94.01 194.384 77.204 178.255 90.049 189.058 C 103.556 191.52 96.719 211.202 88.435 198.894 Z M 100.109 198.591 C 104.551 194.191 102.466 202.921 100.109 198.591 Z M 107.289 200.894 C 100.559 188.274 115.463 206.183 107.289 200.894 Z M 93.014 187.247 C 70.786 167.467 120.941 197.59 96.645 190.914 L 93.014 187.247 Z M 156.699 224.25 C 147.079 218.482 154.147 183.648 157.429 207.474 C 166.778 204.447 156.912 219.776 163.885 219.634 C 162.786 229.305 159.668 232.783 156.696 224.25 L 156.699 224.25 Z M 180.25 238.169 C 181.195 227.673 182.236 245.348 180.25 238.169 Z M 176.158 234.127 C 177.217 229.642 176.269 239.408 176.158 234.127 Z M 97.374 180.744 C 83.095 161.046 138.872 200.673 106.518 185.743 C 103.139 184.86 99.07 184.543 97.374 180.744 Z M 142.732 204.795 C 141.381 188.206 145.751 207.545 142.732 204.795 Z M 177.172 226.886 C 179.833 217.437 177.37 233.138 177.172 226.886 Z M 99.562 173.224 C 108.047 171.41 134.73 188.131 110.227 178.002 C 107.502 174.988 101.7 176.358 99.562 173.228 L 99.562 173.224 Z M 172.437 209.55 C 173.344 192.587 177.506 199.419 172.47 211.978 L 172.44 209.55 L 172.437 209.55 Z M 105.879 167.324 C 109.335 162.251 96.699 144.391 107.702 160.917 C 112.456 164.695 121.463 167.244 113.51 168.832 C 126.017 179.87 110.456 171.823 105.877 167.324 L 105.879 167.324 Z M 168.835 204.251 C 171.225 184.928 170.942 215.57 168.835 204.251 Z M 98.656 149.477 C 101.296 148.347 100.053 152.998 98.656 149.477 Z M 115.08 159.251 C 119.306 150.385 122.874 169.141 115.08 159.251 Z M 161.4 185.02 C 161.355 181.613 162.273 189.973 161.4 185.02 Z M 158.716 179.079 C 152.286 163.216 164.696 187.476 158.716 179.079 Z M 154.768 168.681 C 153.689 162.128 158.436 176.913 154.768 168.681 Z M 161.194 158.237 C 156.781 150.462 166.764 123.975 167.876 140.4 C 163.222 153.2 166.535 160.361 169.782 143.194 C 175.781 129.682 168.488 169.855 161.194 158.237 Z M 167.796 118.845 C 169.719 116.484 168.223 121.691 167.796 118.845 Z M 156.771 336.103 C 154.154 333.82 157.097 337.555 156.771 336.103 Z M 179.481 347.59 C 192.115 350.834 192.051 345.625 180.634 344.078 C 174.491 338.365 155.113 332.307 172.459 343.371 C 173.607 346.28 177.239 346.211 179.481 347.59 Z M 134.624 317.797 C 141.585 322.988 160.841 332.508 144.54 319.774 C 150.038 313.386 134.021 309.988 139.333 305.715 C 125.82 297.447 128.672 298.185 138.141 298.442 C 121.898 291.184 140.484 291.726 139.61 288.008 C 133.348 286.771 108.506 276.964 123.119 288.813 C 108.264 281.237 119.58 291.633 115.087 290.535 C 99.9 286.394 128.619 302.107 112.677 298.205 C 121.388 305.114 136.135 315.897 116.358 305.514 C 113.756 309.267 130.512 314.948 134.624 317.799 L 134.624 317.797 Z M 158.379 331.443 C 187.265 340.752 144.218 320.073 158.379 331.443 Z M 279.985 405.113 C 280.358 399.382 276.039 410.002 279.985 405.113 Z M 292.484 410.371 C 299.148 403.916 292.756 420.659 303.524 408.791 C 303.642 400.298 303.193 395.281 291.151 405.598 C 287.829 407.44 286.347 415.271 292.484 410.371 Z M 94.08 285.77 C 92.034 277.727 79.734 277.769 94.08 285.77 Z M 107.426 294.517 C 102.471 286.301 89.743 287.08 107.426 294.517 Z M 183.355 340.306 C 190.767 346.892 217.4 345.14 192.358 341.119 C 188.65 335.635 168.806 336.957 183.355 340.306 Z M 287.73 404.769 C 299.141 395.196 276.674 409.041 287.73 404.769 Z M 311.458 421.076 C 311.53 418.001 306.539 422.42 311.458 421.076 Z M 311.494 416.775 C 324.128 403.386 299.252 417.566 311.494 416.775 Z M 61.256 258.291 C 50.486 242.927 54.56 236.02 44.177 223.477 C 42.21 213.881 26.361 192.112 35.979 215.175 C 44.789 228.665 47.405 249.546 61.256 258.291 Z M 307.531 412.518 C 330.775 397.494 297.99 405.976 307.531 412.518 Z M 325.275 419.469 C 336.917 409.475 317.912 417.378 325.275 419.469 Z M 90.124 268.788 C 93.456 263.833 81.521 268.157 90.124 268.788 Z M 321.572 414.722 C 332.842 407.457 318.975 408.574 319.527 415.392 L 321.572 414.722 Z M 168.618 318.316 C 168.233 313.409 162.666 318.733 168.618 318.316 Z M 178.072 323.756 C 175.065 317.681 173.453 324.707 178.072 323.756 Z M 339.653 419.634 C 354.093 409.219 330.903 417.641 336.624 421.608 L 339.656 419.634 L 339.653 419.634 Z M 334.126 416.961 C 345.889 407.106 321.708 421.33 334.126 416.961 Z M 362.377 435.774 C 370.27 430.485 352.779 434.063 362.377 435.774 Z M 97.364 265.216 C 107.952 267.59 139.667 291.287 120.957 266.856 C 111.372 264.019 117.12 240.589 107.346 244.738 C 113.905 255.7 112.744 260.365 98.967 253.453 C 81.653 245.002 89.238 257.643 92.619 261.125 C 88.01 262.173 98.721 265.128 97.364 265.216 Z M 49.135 227.129 C 51.031 219.291 31.684 184.004 40.001 209.447 C 43.004 214.777 42.698 224.877 49.135 227.129 Z M 137.657 281.703 C 132.206 277.144 137.398 281.058 137.657 281.703 Z M 151.079 284.826 C 151.072 276.524 136.243 281.454 151.079 284.826 Z M 267.403 358.157 C 265.184 352.485 258.633 358.029 267.403 358.157 Z M 272.989 362.238 C 272.165 359.064 269.767 362.852 272.989 362.238 Z M 319.095 391.279 C 323.53 388.003 313.564 390.86 319.095 391.279 Z M 73.227 233.279 C 85.909 228.368 59.637 229.776 73.227 233.279 Z M 257.164 349.159 C 257.023 340.948 249.078 351.197 257.164 349.159 Z M 68.216 221.601 C 76.362 218.848 60.678 219.786 68.216 221.601 Z M 91.864 233.055 C 91.715 230.357 89.361 234.075 91.864 233.055 Z M 380.301 409.929 C 390.779 407.804 414.652 415.263 418.513 407.151 C 405.79 406.843 374.494 398.175 373.012 409.22 L 375.799 409.657 L 380.301 409.929 Z M 99.383 234.947 C 99.564 226.626 92.892 234.637 99.383 234.947 Z M 37.206 191.816 C 34.38 175.962 26.465 189.415 37.206 191.816 Z M 52.035 195.543 C 52.214 190.455 38.462 190.964 52.035 195.543 Z M 60.504 199.707 C 58.056 197.72 58.587 202.21 60.504 199.707 Z M 113.82 233.906 C 116.329 231.601 107.879 232.197 113.82 233.906 Z M 54.863 190.319 C 53.43 178.344 37.688 188.523 54.863 190.319 Z M 24.463 170.596 C 24.031 165.07 21.502 172.678 24.463 170.596 Z M 28.987 167.179 C 28.249 160.627 25.105 168.012 28.987 167.179 Z M 53.967 182.091 C 64.532 177.943 34.726 173.508 51.808 181.306 L 53.967 182.091 Z M 388.323 388.619 C 395.084 382.418 379.73 386.701 388.323 388.619 Z M 428.716 409.554 C 431.425 401.541 421.892 410.611 428.716 409.554 Z M 56.522 169 C 57.634 161.245 48.144 170.537 56.522 169 Z M 20.978 145.182 C 19.068 134.237 19.328 115.024 37.593 121.518 C 13.214 126.358 54.466 151.819 49.256 131.717 C 59.509 132.217 69.31 125.658 63.932 135.613 C 84.126 133.381 98.129 115.868 117.638 118.323 C 132.835 116.31 149.45 114.788 165.826 108.671 C 179.295 107.699 192.253 93.205 184.872 84.61 C 166.511 83.057 147.29 85.356 126.994 89.39 C 104.505 94.063 84.079 102.947 61.388 106.758 C 39.271 109.73 65.835 114.944 59.5 116.106 C 47.962 120.11 73.265 122.813 58.005 127.033 C 48.58 125.24 38.77 122.005 42.797 112.072 C 21.61 114.821 2.993 123.612 19.731 145.173 L 20.978 145.182 Z M 72.03 119.183 C 76.997 100.884 98.642 134.244 80.171 121.613 C 77.966 119.964 74.337 118.617 72.03 119.183 Z M 72.996 110.312 C 80.166 104.969 76.806 113.305 72.996 110.312 Z M 82.098 110.454 C 82.746 102.036 102.94 114.914 85.429 113.487 L 82.098 110.454 Z M 94.553 105.448 C 99.102 100.136 95.859 110.177 94.553 105.448 Z M 97.74 103.314 C 105.311 94.217 140.621 97.506 114.774 102.428 C 107.848 97.21 102.535 105.504 97.737 103.314 L 97.74 103.314 Z M 143.82 96.212 C 142.666 71.358 166.712 105.044 143.82 96.212 Z M 156.894 96.138 C 161.674 83.615 175.445 91.115 159.105 93.623 C 159.462 94.957 158.626 100.09 156.894 96.141 L 156.894 96.138 Z M 51.366 162.575 C 65.647 153.829 36.203 154.986 51.366 162.575 Z M 61.929 165.51 C 66.936 160.185 51.045 163.35 61.929 165.51 Z M 30.808 143.425 C 38.971 137.155 21.153 141.04 30.808 143.425 Z M 452.558 407.267 C 452.794 399.994 446.319 410.545 452.558 407.267 Z M 409.702 378.02 C 410.921 369.648 404.196 378.753 409.702 378.02 Z M 464.339 410.089 C 475.75 410.128 498.914 406.547 474.085 406.557 C 470.188 407.164 451.384 407.036 464.339 410.089 Z M 71.217 160.371 C 80.451 159.74 85.663 150.187 69.431 150.734 C 44.27 148.132 91.628 159.352 66.202 156.141 C 62.785 158.404 71.016 160.999 71.214 160.371 L 71.217 160.371 Z M 79.348 164.488 C 78.384 158.56 76.496 167.641 79.348 164.488 Z M 88.996 138.763 C 93.005 133.792 83.45 137.434 88.996 138.763 Z M 58.284 87.427 C 74.766 81.818 97.303 75.519 105.084 90.187 C 97.167 80.655 101.889 71.272 109.369 85.21 C 119.947 99.309 125.241 78.794 118.365 74.065 C 126.203 83.805 135.12 88.409 123.612 74.683 C 136.118 59.64 98.571 76.651 90.039 76.482 C 85.932 78.321 47.649 86.241 58.284 87.427 Z M 67.942 68.928 C 77.344 61.834 100.453 73.147 85.624 61.877 C 84.172 60.595 53.148 70.423 67.942 68.928 Z M 102.212 70.341 C 113.212 70.624 97.465 55.565 110.574 62.386 C 108.42 55.355 95.313 54.039 88.905 51.228 C 85.281 57.657 96.279 70.429 102.212 70.345 L 102.212 70.341 Z M 73.951 39.239 C 77.757 34.081 67.283 41.855 73.951 39.239 Z M 87.958 42.593 C 105.685 40.241 83.439 34.957 84.385 42.402 L 87.958 42.593 Z M 61.805 22.121 C 49.324 5.829 85.281 24.862 72.6 7.802 C 61.926 -0.696 51.668 17.367 61.805 22.121 Z M 221.996 108.405 C 227.722 98.258 198.362 94.726 218.14 104.808 C 219.96 105.417 219.55 109.108 221.996 108.405 Z"></path>
  <g style="font-size:40px;font-style:normal;font-weight:400;fill:#000;fill-opacity:1;stroke:none;font-family:Bitstream Vera Sans" transform="matrix(1, 0, 0, 1, 7.50346, 95.458923)"></g>
</svg>